<?xml version="1.0" encoding="utf-8"?>
<!-- Generator: Adobe Illustrator 19.0.0, SVG Export Plug-In . SVG Version: 6.00 Build 0)  -->
<svg version="1.1" id="Layer_1" xmlns="http://www.w3.org/2000/svg" xmlns:xlink="http://www.w3.org/1999/xlink" x="0px" y="0px"
	 viewBox="0 0 478.1 549.7" style="enable-background:new 0 0 478.1 549.7;" xml:space="preserve">
<style type="text/css">
	.st0{fill:#F2F2F2;}
	.st1{fill:#12AEF0;}
	.st2{fill:#000100;}
	.st3{fill:#0F9BD3;}
	.st4{fill:#FCFEFD;}
	.st5{fill:#FCB042;}
</style>
<polygon id="XMLID_15_" class="st0" points="78.6,427 201.3,549.7 478.1,549.7 478.1,322.7 258.7,105 125.2,329.1 100.9,427.1 "/>
<g id="XMLID_52_">
	<polygon id="XMLID_53_" points="256.1,419.2 250.7,399.9 206.7,408.6 184.6,354 196.6,349.2 214.6,393.9 259.8,384.9 268.6,415.6 	
		"/>
</g>
<g id="XMLID_50_">
	<polygon id="XMLID_51_" points="105.6,432.6 75.6,426.6 78.1,413.9 96.6,417.6 115.9,352.1 128.3,355.8 	"/>
</g>
<g id="XMLID_16_">
	<g id="XMLID_47_">
		<g id="XMLID_48_">
			<circle id="XMLID_49_" class="st1" cx="157.6" cy="216.6" r="139.4"/>
		</g>
	</g>
	<g id="XMLID_44_">
		<g id="XMLID_45_">
			
				<rect id="XMLID_46_" x="-4.3" y="87.1" transform="matrix(0.7029 0.7113 -0.7113 0.7029 75.7239 7.9789)" class="st2" width="65.2" height="15.1"/>
		</g>
	</g>
	<g id="XMLID_41_">
		<g id="XMLID_42_">
			
				<rect id="XMLID_43_" x="289.5" y="72.3" transform="matrix(0.7113 0.7029 -0.7029 0.7113 159.5425 -178.5027)" class="st2" width="15.1" height="65.2"/>
		</g>
	</g>
	<g id="XMLID_38_">
		<g id="XMLID_39_">
			
				<rect id="XMLID_40_" x="51.5" y="44.2" transform="matrix(0.5036 0.8639 -0.8639 0.5036 87.506 -48.7308)" class="st2" width="69.4" height="15.1"/>
		</g>
	</g>
	<g id="XMLID_35_">
		<g id="XMLID_36_">
			
				<rect id="XMLID_37_" x="234.5" y="18.6" transform="matrix(0.8639 0.5036 -0.5036 0.8639 59.7809 -114.6453)" class="st2" width="15.1" height="69.4"/>
		</g>
	</g>
	<g id="XMLID_32_">
		<g id="XMLID_33_">
			
				<rect id="XMLID_34_" x="156.6" y="0.1" transform="matrix(1 8.300492e-03 -8.300492e-03 1 0.3263 -1.3614)" class="st2" width="15.1" height="77.1"/>
		</g>
	</g>
	<path id="XMLID_31_" class="st3" d="M87.4,283.2l52.7,71.8c0,0,57.5,8.3,66.6,1.1c9.1-7.2,70.8-33.4,74.8-57.7s12.1-50.6,16.2-55.7
		c4-5.1-75.9-98.5-75.9-98.5L87.4,283.2z"/>
	<g id="XMLID_28_">
		<g id="XMLID_29_">
			<circle id="XMLID_30_" class="st4" cx="157.6" cy="216.6" r="96.8"/>
		</g>
	</g>
	<g id="XMLID_25_">
		<g id="XMLID_26_">
			<circle id="XMLID_27_" class="st5" cx="157.6" cy="216.6" r="61.8"/>
		</g>
	</g>
	<g id="XMLID_22_">
		<g id="XMLID_23_">
			<circle id="XMLID_24_" class="st2" cx="157.6" cy="216.6" r="43.2"/>
		</g>
	</g>
	<g id="XMLID_17_">
		<g id="XMLID_18_">
			<path id="XMLID_19_" class="st2" d="M157.6,369.4c-84.2,0-152.7-68.5-152.7-152.7S73.4,63.9,157.6,63.9s152.7,68.5,152.7,152.7
				S241.9,369.4,157.6,369.4z M157.6,79C81.7,79,20,140.7,20,216.6s61.7,137.6,137.6,137.6s137.6-61.7,137.6-137.6
				S233.5,79,157.6,79z"/>
		</g>
	</g>
</g>
</svg>
