<?xml version="1.0" encoding="utf-8"?>
<!-- Generator: Adobe Illustrator 19.1.0, SVG Export Plug-In . SVG Version: 6.00 Build 0)  -->
<svg version="1.1" id="Layer_1" xmlns="http://www.w3.org/2000/svg" xmlns:xlink="http://www.w3.org/1999/xlink" x="0px" y="0px"
	 viewBox="0 0 1057.1 314" style="enable-background:new 0 0 1057.1 314;" xml:space="preserve">
<style type="text/css">
	.st0{fill:#FFFFFF;stroke:#C4C6C4;stroke-miterlimit:10;}
	.st1{fill:#F2F2F2;}
	.st2{fill:#FFFFFF;}
	.st3{fill:#7DE284;}
	.st4{fill:#FFFFFF;stroke:#000000;stroke-width:2;stroke-miterlimit:10;}
	.st5{fill:#2ED28B;}
	.st6{fill:none;stroke:#000100;stroke-width:10;stroke-miterlimit:10;}
	.st7{fill:#FCFEFD;}
	.st8{fill:#CD4180;}
	.st9{fill:#000100;}
	.st10{fill:#12AEF0;}
	.st11{fill:#FCB042;}
	.st12{fill:#7EE286;stroke:#020202;stroke-width:3;stroke-miterlimit:10;}
	.st13{fill:#12AEF0;stroke:#020202;stroke-width:3;stroke-miterlimit:10;}
	.st14{fill:#0D91C9;}
	.st15{fill:#111010;stroke:#FCB042;stroke-width:3;stroke-miterlimit:10;}
	.st16{fill:none;stroke:#020202;stroke-width:3;stroke-miterlimit:10;}
	.st17{fill:#7EE286;}
	.st18{fill:none;stroke:#000000;stroke-width:7;stroke-miterlimit:10;}
	.st19{fill:#020202;}
	.st20{fill:#111010;}
	.st21{fill:none;stroke:#000000;stroke-width:3;stroke-miterlimit:10;}
	.st22{fill:none;stroke:#000000;stroke-width:6;stroke-miterlimit:10;}
	.st23{fill:#FFFFFF;stroke:#C2C4C2;stroke-miterlimit:10;}
	.st24{fill:#12AEF0;stroke:#050505;stroke-width:3;stroke-miterlimit:10;}
	.st25{fill:#0F9BD3;}
	.st26{fill:none;stroke:#000000;stroke-width:14;stroke-miterlimit:10;}
	.st27{fill:#FFFFFF;stroke:#000000;stroke-width:6;stroke-miterlimit:10;}
	.st28{fill:none;stroke:#000000;stroke-width:8;stroke-miterlimit:10;}
	.st29{fill:none;stroke:#000000;stroke-width:5;stroke-miterlimit:10;}
	.st30{fill:none;stroke:#000000;stroke-width:10;stroke-miterlimit:10;}
	.st31{fill:none;stroke:#000000;stroke-width:9;stroke-miterlimit:10;}
	.st32{fill:#FFFFFF;stroke:#000000;stroke-width:7;stroke-miterlimit:10;}
	.st33{fill:#FFFFFF;stroke:#000000;stroke-width:4;stroke-miterlimit:10;}
	.st34{fill:none;stroke:#070707;stroke-width:9;stroke-miterlimit:10;}
	.st35{fill:#D1F2D2;}
	.st36{fill:#C3DDC3;}
</style>
<g>
	<g>
		<polygon points="197.1,285.5 193.5,272.8 164.4,278.6 149.9,242.6 157.8,239.4 169.7,268.9 199.5,263 205.3,283.2 		"/>
	</g>
	<g>
		<polygon points="97.8,294.4 78,290.4 79.7,282.1 91.9,284.5 104.6,241.3 112.8,243.7 		"/>
	</g>
	<g>
		<g>
			<g>
				<circle class="st10" cx="132.1" cy="152" r="91.9"/>
			</g>
		</g>
		<g>
			<g>
				
					<rect x="25.4" y="66.6" transform="matrix(0.7029 0.7113 -0.7113 0.7029 64.8767 -12.0738)" class="st9" width="43" height="10"/>
			</g>
		</g>
		<g>
			<g>
				
					<rect x="219.1" y="56.9" transform="matrix(0.7113 0.7029 -0.7029 0.7113 119.8102 -134.8303)" class="st9" width="10" height="43"/>
			</g>
		</g>
		<g>
			<g>
				
					<rect x="62.2" y="38.4" transform="matrix(0.5036 0.8639 -0.8639 0.5036 79.6806 -51.9195)" class="st9" width="45.7" height="10"/>
			</g>
		</g>
		<g>
			<g>
				
					<rect x="182.8" y="21.5" transform="matrix(0.8639 0.5036 -0.5036 0.8639 47.903 -88.5262)" class="st9" width="10" height="45.7"/>
			</g>
		</g>
		<g>
			<g>
				
					<rect x="131.5" y="9.3" transform="matrix(1 8.300495e-03 -8.300495e-03 1 0.2928 -1.1314)" class="st9" width="10" height="50.8"/>
			</g>
		</g>
		<path class="st25" d="M85.8,195.9l34.7,47.3c0,0,37.9,5.5,43.9,0.7c6-4.7,46.7-22,49.3-38s8-33.4,10.7-36.7
			c2.7-3.3-50-64.9-50-64.9L85.8,195.9z"/>
		<g>
			<g>
				<circle class="st7" cx="132.1" cy="152" r="63.8"/>
			</g>
		</g>
		<g>
			<g>
				<circle class="st11" cx="132.1" cy="152" r="40.8"/>
			</g>
		</g>
		<g>
			<g>
				<circle class="st9" cx="132.1" cy="152" r="28.5"/>
			</g>
		</g>
		<g>
			<g>
				<path class="st9" d="M132.1,252.7c-55.5,0-100.7-45.2-100.7-100.7S76.6,51.3,132.1,51.3S232.8,96.5,232.8,152
					S187.6,252.7,132.1,252.7z M132.1,61.3c-50,0-90.7,40.7-90.7,90.7s40.7,90.7,90.7,90.7s90.7-40.7,90.7-90.7
					S182.2,61.3,132.1,61.3z"/>
			</g>
		</g>
	</g>
</g>
<g>
	<polygon points="461.5,285.3 457.9,272.6 428.9,278.4 414.4,242.4 422.3,239.2 434.2,268.7 464,262.8 469.7,283 	"/>
</g>
<g>
	<polygon points="362.3,294.2 342.5,290.2 344.2,281.9 356.3,284.3 369.1,241.1 377.2,243.5 	"/>
</g>
<g>
	<g>
		<circle class="st10" cx="396.6" cy="151.8" r="91.9"/>
	</g>
</g>
<path class="st25" d="M350.3,195.7L385,243c0,0,37.9,5.5,43.9,0.7c6-4.7,46.7-22,49.3-38c2.7-16,8-33.4,10.7-36.7
	c2.7-3.3-50-64.9-50-64.9L350.3,195.7z"/>
<g>
	<g>
		<circle class="st7" cx="396.6" cy="151.8" r="63.8"/>
	</g>
</g>
<g>
	<g>
		<circle class="st11" cx="396.6" cy="151.8" r="40.8"/>
	</g>
</g>
<g>
	<g>
		<circle class="st9" cx="396.6" cy="151.8" r="28.5"/>
	</g>
</g>
<g>
	<g>
		<path class="st10" d="M308.1,110c0,0,27.2,38.6,90.7,36.7s86.2-29.6,86.2-29.6s-43.5-58.3-74.2-59.7s-23.3-2.8-46.1,8
			c-22.8,10.8-51.2,37.2-51.2,37.2L308.1,110z"/>
		<path class="st34" d="M310.1,110c0,0,27.2,38.6,90.7,36.7c63.5-1.9,86.2-29.6,86.2-29.6"/>
	</g>
	<g>
		<g>
			<g>
				
					<rect x="465.7" y="136.4" transform="matrix(-0.7029 -0.7113 0.7113 -0.7029 729.0503 587.2576)" class="st9" width="43" height="10"/>
			</g>
		</g>
		<g>
			<g>
				
					<rect x="305" y="113.1" transform="matrix(-0.7113 -0.7029 0.7029 -0.7113 435.9478 448.2051)" class="st9" width="10" height="43"/>
			</g>
		</g>
		<g>
			<g>
				
					<rect x="423.6" y="158.7" transform="matrix(-0.5036 -0.8639 0.8639 -0.5036 529.9413 631.7651)" class="st9" width="45.7" height="10"/>
			</g>
		</g>
		<g>
			<g>
				
					<rect x="343" y="137.3" transform="matrix(-0.8639 -0.5036 0.5036 -0.8639 567.9115 473.8014)" class="st9" width="10" height="45.7"/>
			</g>
		</g>
		<g>
			<g>
				
					<rect x="392.6" y="146.9" transform="matrix(-1 -8.300495e-03 8.300495e-03 -1 793.7793 347.8712)" class="st9" width="10" height="50.8"/>
			</g>
		</g>
	</g>
</g>
<g>
	<g>
		<path class="st9" d="M396.6,252.5c-55.5,0-100.7-45.2-100.7-100.7S341.1,51.2,396.6,51.2s100.7,45.2,100.7,100.7
			S452.1,252.5,396.6,252.5z M396.6,61.1c-50,0-90.7,40.7-90.7,90.7s40.7,90.7,90.7,90.7s90.7-40.7,90.7-90.7S446.6,61.1,396.6,61.1
			z"/>
	</g>
</g>
<g>
	<polygon points="725.4,285.3 721.7,272.6 692.7,278.3 678.2,242.4 686.1,239.2 698,268.6 727.8,262.7 733.5,283 	"/>
</g>
<g>
	<polygon points="626.1,294.2 606.3,290.2 608,281.8 620.2,284.3 632.9,241.1 641.1,243.5 	"/>
</g>
<g>
	<g>
		<circle class="st10" cx="660.4" cy="151.8" r="91.9"/>
	</g>
</g>
<path class="st25" d="M614.1,195.7l34.7,47.3c0,0,37.9,5.5,43.9,0.7s46.7-22,49.3-38s8-33.4,10.7-36.7c2.7-3.3-50-64.9-50-64.9
	L614.1,195.7z"/>
<g>
	<g>
		<circle class="st7" cx="660.4" cy="151.8" r="63.8"/>
	</g>
</g>
<g>
	<g>
		<circle class="st11" cx="660.4" cy="151.8" r="40.8"/>
	</g>
</g>
<g>
	<g>
		<circle class="st9" cx="660.4" cy="151.8" r="28.5"/>
	</g>
</g>
<g>
	<g>
		<g>
			<circle class="st9" cx="660.4" cy="149.3" r="28.5"/>
		</g>
	</g>
	<g>
		<path class="st10" d="M567.7,130c0,0,24.6,51.2,97.4,49.1c72.8-2.2,91.6-41.1,91.6-41.1s-28.3-75.9-76.6-82
			c-35-4.4-40-0.7-66.1,11.6s-46.7,57.8-46.7,57.8L567.7,130z"/>
		<path class="st34" d="M565.7,126.2c0,0,21.9,54.6,94.7,54.8c60.7,0.2,95.4-49,95.4-49"/>
	</g>
	<g>
		<g>
			<g>
				
					<rect x="728" y="165.8" transform="matrix(-0.7029 -0.7113 0.7113 -0.7029 1154.8931 823.9071)" class="st9" width="43" height="10"/>
			</g>
		</g>
		<g>
			<g>
				
					<rect x="566.4" y="146.6" transform="matrix(-0.7113 -0.7029 0.7029 -0.7113 859.5703 689.2608)" class="st9" width="10" height="43"/>
			</g>
		</g>
		<g>
			<g>
				
					<rect x="688.7" y="189.4" transform="matrix(-0.5036 -0.8639 0.8639 -0.5036 902.0983 907.0109)" class="st9" width="45.7" height="10"/>
			</g>
		</g>
		<g>
			<g>
				
					<rect x="605.8" y="171.5" transform="matrix(-0.8639 -0.5036 0.5036 -0.8639 1040.5648 669.8746)" class="st9" width="10" height="45.7"/>
			</g>
		</g>
		<g>
			<g>
				
					<rect x="657.8" y="177.6" transform="matrix(-1 -8.300495e-03 8.300495e-03 -1 1323.8154 411.493)" class="st9" width="10" height="50.8"/>
			</g>
		</g>
	</g>
</g>
<g>
	<g>
		<path class="st9" d="M660.4,252.5c-55.5,0-100.7-45.2-100.7-100.7S604.9,51.1,660.4,51.1s100.7,45.2,100.7,100.7
			S715.9,252.5,660.4,252.5z M660.4,61.1c-50,0-90.7,40.7-90.7,90.7s40.7,90.7,90.7,90.7s90.7-40.7,90.7-90.7S710.4,61.1,660.4,61.1
			z"/>
	</g>
</g>
<g>
	<g>
		<polygon points="990.3,285.3 986.7,272.6 957.7,278.3 943.2,242.4 951.1,239.2 963,268.6 992.8,262.7 998.5,283 		"/>
	</g>
	<g>
		<polygon points="891.1,294.2 871.3,290.2 873,281.8 885.2,284.3 897.9,241.1 906.1,243.5 		"/>
	</g>
	<g>
		<g>
			<circle class="st10" cx="925.4" cy="151.8" r="91.9"/>
		</g>
	</g>
	<g>
		<g>
			<circle class="st9" cx="925.4" cy="151.8" r="28.5"/>
		</g>
	</g>
	<g>
		<g>
			<g>
				<circle class="st9" cx="925.4" cy="149.3" r="28.5"/>
			</g>
		</g>
		<g>
			<path class="st10" d="M829.8,172.6c0,0,24.6,51.2,97.4,49.1s91.6-41.1,91.6-41.1s-28.3-75.9-76.6-82c-35-4.4-40-0.7-66.1,11.6
				S829.6,168,829.6,168L829.8,172.6z"/>
			<path class="st34" d="M830.8,168.7c0,0,18.9,54.6,91.7,54.8c60.7,0.2,94.4-49,94.4-49"/>
		</g>
		<g>
			<g>
				<g>
					
						<rect x="990.1" y="208.3" transform="matrix(-0.7029 -0.7113 0.7113 -0.7029 1571.033 1082.8008)" class="st9" width="43" height="10"/>
				</g>
			</g>
			<g>
				<g>
					
						<rect x="828.5" y="189.1" transform="matrix(-0.7113 -0.7029 0.7029 -0.7113 1278.2601 946.3165)" class="st9" width="10" height="43"/>
				</g>
			</g>
			<g>
				<g>
					
						<rect x="950.9" y="231.9" transform="matrix(-0.5036 -0.8639 0.8639 -0.5036 1259.5031 1197.4421)" class="st9" width="45.7" height="10"/>
				</g>
			</g>
			<g>
				<g>
					
						<rect x="867.9" y="214" transform="matrix(-0.8639 -0.5036 0.5036 -0.8639 1507.7388 881.191)" class="st9" width="10" height="45.7"/>
				</g>
			</g>
			<g>
				<g>
					
						<rect x="919.9" y="220.1" transform="matrix(-1 -8.300495e-03 8.300495e-03 -1 1847.7261 498.7508)" class="st9" width="10" height="50.8"/>
				</g>
			</g>
		</g>
	</g>
	<g>
		<g>
			<path class="st9" d="M925.4,252.5c-55.5,0-100.7-45.2-100.7-100.7S869.9,51.1,925.4,51.1s100.7,45.2,100.7,100.7
				S980.9,252.5,925.4,252.5z M925.4,61.1c-50,0-90.7,40.7-90.7,90.7s40.7,90.7,90.7,90.7c50,0,90.7-40.7,90.7-90.7
				S975.4,61.1,925.4,61.1z"/>
		</g>
	</g>
</g>
</svg>
